# xmcd
#
# Track frame offsets:
#	150
#	14891
#	31006
#	50086
#	65770
#	83912
#	101164
#	117092
#	132662
#	149832
#	166559
#	183603
#	200040
#	215282
#	232147
#	248461
#	264793
#	283256
#	299052
#
# Disc length: 4223 seconds
#
# Revision: 0
# Processed by: cddbd v1.5.2PL0 Copyright (c) Steve Scherf et al.
# Submitted via: audiograbber 1.83.01
#
DISCID=32107d13
DTITLE=Various Artist - Hott Country 158
DYEAR=2009
DGENRE=Country
TTITLE0=Kenny Chesney - Out Last Night
TTITLE1=Toby Keith - Lost You Anyway
TTITLE2=Brad Paisley - Then
TTITLE3=Chris Young - Gettin' You Home ( The Black Dress Song )
TTITLE4=David Nail - Red Light
TTITLE5=Billy Currington - People Are Crazy
TTITLE6=Victoria Banks - The Wheel
TTITLE7=Jack Ingram - Barefoot And Crazy
TTITLE8=Miley Cyrus - The Climb ( Country Edit )
TTITLE9=Pat Green - Country Star
TTITLE10=Emerson Drive - Country Star
TTITLE11=Elic Young Band - Believe
TTITLE12=Jason Blaine - Give It To Me
TTITLE13=Jessica Harp - Boy Like Me
TTITLE14=Gloriana - Wild At Heart
TTITLE15=Jonathan Singleton And The Grove - Livin' In Paradise
TTITLE16=Tara Oram - Go To Bed Angry
TTITLE17=Road Hammers - I've Got The Scars To Pove It
TTITLE18=Vince Gill - I Still Believe In You ( 1992 )
EXTD=April 2009
EXTT0=
EXTT1=
EXTT2=
EXTT3=
EXTT4=
EXTT5=
EXTT6=
EXTT7=
EXTT8=
EXTT9=
EXTT10=
EXTT11=
EXTT12=
EXTT13=
EXTT14=
EXTT15=
EXTT16=
EXTT17=
EXTT18=
PLAYORDER=
